<mxfile host="app.diagrams.net" agent="Mozilla/5.0 (Windows NT 10.0; Win64; x64) AppleWebKit/537.36 (KHTML, like Gecko) Chrome/139.0.0.0 Safari/537.36" version="28.1.1">
  <diagram name="Page-1" id="Ye9n74pcMEoT4pEyBYgm">
    <mxGraphModel grid="1" page="1" gridSize="10" guides="1" tooltips="1" connect="1" arrows="1" fold="1" pageScale="1" pageWidth="1100" pageHeight="850" math="0" shadow="0">
      <root>
        <mxCell id="0" />
        <mxCell id="1" parent="0" />
        <mxCell id="wx-s2WUpj1Cs5XXkQj0O-1" value="crm_cust_info" style="swimlane;fontStyle=0;childLayout=stackLayout;horizontal=1;startSize=30;horizontalStack=0;resizeParent=1;resizeParentMax=0;resizeLast=0;collapsible=1;marginBottom=0;whiteSpace=wrap;html=1;fillColor=#dae8fc;strokeColor=#6c8ebf;" vertex="1" parent="1">
          <mxGeometry x="400" y="410" width="140" height="94" as="geometry" />
        </mxCell>
        <mxCell id="wx-s2WUpj1Cs5XXkQj0O-2" value="cst_id" style="text;strokeColor=none;fillColor=none;align=left;verticalAlign=middle;spacingLeft=4;spacingRight=4;overflow=hidden;points=[[0,0.5],[1,0.5]];portConstraint=eastwest;rotatable=0;whiteSpace=wrap;html=1;" vertex="1" parent="wx-s2WUpj1Cs5XXkQj0O-1">
          <mxGeometry y="30" width="140" height="32" as="geometry" />
        </mxCell>
        <mxCell id="wx-s2WUpj1Cs5XXkQj0O-22" value="cst_key" style="text;strokeColor=none;fillColor=none;align=left;verticalAlign=middle;spacingLeft=4;spacingRight=4;overflow=hidden;points=[[0,0.5],[1,0.5]];portConstraint=eastwest;rotatable=0;whiteSpace=wrap;html=1;" vertex="1" parent="wx-s2WUpj1Cs5XXkQj0O-1">
          <mxGeometry y="62" width="140" height="32" as="geometry" />
        </mxCell>
        <mxCell id="wx-s2WUpj1Cs5XXkQj0O-5" value="&lt;font style=&quot;font-size: 11px;&quot;&gt;Customer Informations&lt;/font&gt;" style="text;html=1;align=center;verticalAlign=middle;whiteSpace=wrap;rounded=0;" vertex="1" parent="1">
          <mxGeometry x="410" y="380" width="120" height="30" as="geometry" />
        </mxCell>
        <mxCell id="wx-s2WUpj1Cs5XXkQj0O-9" value="crm_sales_details" style="swimlane;fontStyle=0;childLayout=stackLayout;horizontal=1;startSize=30;horizontalStack=0;resizeParent=1;resizeParentMax=0;resizeLast=0;collapsible=1;marginBottom=0;whiteSpace=wrap;html=1;fillColor=#dae8fc;strokeColor=#6c8ebf;" vertex="1" parent="1">
          <mxGeometry x="110" y="300" width="140" height="90" as="geometry" />
        </mxCell>
        <mxCell id="wx-s2WUpj1Cs5XXkQj0O-12" value="prd_key" style="text;strokeColor=none;fillColor=none;align=left;verticalAlign=middle;spacingLeft=4;spacingRight=4;overflow=hidden;points=[[0,0.5],[1,0.5]];portConstraint=eastwest;rotatable=0;whiteSpace=wrap;html=1;" vertex="1" parent="wx-s2WUpj1Cs5XXkQj0O-9">
          <mxGeometry y="30" width="140" height="30" as="geometry" />
        </mxCell>
        <mxCell id="wx-s2WUpj1Cs5XXkQj0O-10" value="cst_id" style="text;strokeColor=none;fillColor=none;align=left;verticalAlign=middle;spacingLeft=4;spacingRight=4;overflow=hidden;points=[[0,0.5],[1,0.5]];portConstraint=eastwest;rotatable=0;whiteSpace=wrap;html=1;" vertex="1" parent="wx-s2WUpj1Cs5XXkQj0O-9">
          <mxGeometry y="60" width="140" height="30" as="geometry" />
        </mxCell>
        <mxCell id="wx-s2WUpj1Cs5XXkQj0O-11" value="&lt;font style=&quot;font-size: 11px;&quot;&gt;Transectional Records about Sales and Orders&lt;/font&gt;" style="text;html=1;align=center;verticalAlign=middle;whiteSpace=wrap;rounded=0;" vertex="1" parent="1">
          <mxGeometry x="110" y="270" width="140" height="30" as="geometry" />
        </mxCell>
        <mxCell id="wx-s2WUpj1Cs5XXkQj0O-13" value="crm_prd_info" style="swimlane;fontStyle=0;childLayout=stackLayout;horizontal=1;startSize=30;horizontalStack=0;resizeParent=1;resizeParentMax=0;resizeLast=0;collapsible=1;marginBottom=0;whiteSpace=wrap;html=1;fillColor=#dae8fc;strokeColor=#6c8ebf;" vertex="1" parent="1">
          <mxGeometry x="400" y="240" width="140" height="60" as="geometry" />
        </mxCell>
        <mxCell id="wx-s2WUpj1Cs5XXkQj0O-14" value="prd_key" style="text;strokeColor=none;fillColor=none;align=left;verticalAlign=middle;spacingLeft=4;spacingRight=4;overflow=hidden;points=[[0,0.5],[1,0.5]];portConstraint=eastwest;rotatable=0;whiteSpace=wrap;html=1;" vertex="1" parent="wx-s2WUpj1Cs5XXkQj0O-13">
          <mxGeometry y="30" width="140" height="30" as="geometry" />
        </mxCell>
        <mxCell id="wx-s2WUpj1Cs5XXkQj0O-15" value="&lt;font style=&quot;font-size: 11px;&quot;&gt;Product Info - Current &amp;amp; History&lt;/font&gt;" style="text;html=1;align=center;verticalAlign=middle;whiteSpace=wrap;rounded=0;" vertex="1" parent="1">
          <mxGeometry x="410" y="210" width="120" height="30" as="geometry" />
        </mxCell>
        <mxCell id="wx-s2WUpj1Cs5XXkQj0O-17" style="edgeStyle=orthogonalEdgeStyle;rounded=0;orthogonalLoop=1;jettySize=auto;html=1;entryX=-0.029;entryY=-0.067;entryDx=0;entryDy=0;entryPerimeter=0;" edge="1" parent="1" source="wx-s2WUpj1Cs5XXkQj0O-12" target="wx-s2WUpj1Cs5XXkQj0O-14">
          <mxGeometry relative="1" as="geometry" />
        </mxCell>
        <mxCell id="wx-s2WUpj1Cs5XXkQj0O-18" style="edgeStyle=orthogonalEdgeStyle;rounded=0;orthogonalLoop=1;jettySize=auto;html=1;entryX=0;entryY=0.5;entryDx=0;entryDy=0;" edge="1" parent="1" source="wx-s2WUpj1Cs5XXkQj0O-10" target="wx-s2WUpj1Cs5XXkQj0O-2">
          <mxGeometry relative="1" as="geometry" />
        </mxCell>
        <mxCell id="wx-s2WUpj1Cs5XXkQj0O-19" value="&lt;div&gt;&lt;span style=&quot;background-color: transparent; color: light-dark(rgb(0, 0, 0), rgb(255, 255, 255));&quot;&gt;erp_cust_az12&lt;/span&gt;&lt;/div&gt;" style="swimlane;fontStyle=0;childLayout=stackLayout;horizontal=1;startSize=30;horizontalStack=0;resizeParent=1;resizeParentMax=0;resizeLast=0;collapsible=1;marginBottom=0;whiteSpace=wrap;html=1;fillColor=#e1d5e7;strokeColor=#9673a6;" vertex="1" parent="1">
          <mxGeometry x="820" y="370" width="140" height="60" as="geometry" />
        </mxCell>
        <mxCell id="wx-s2WUpj1Cs5XXkQj0O-20" value="cid" style="text;strokeColor=none;fillColor=none;align=left;verticalAlign=middle;spacingLeft=4;spacingRight=4;overflow=hidden;points=[[0,0.5],[1,0.5]];portConstraint=eastwest;rotatable=0;whiteSpace=wrap;html=1;" vertex="1" parent="wx-s2WUpj1Cs5XXkQj0O-19">
          <mxGeometry y="30" width="140" height="30" as="geometry" />
        </mxCell>
        <mxCell id="wx-s2WUpj1Cs5XXkQj0O-21" value="&lt;font style=&quot;font-size: 11px;&quot;&gt;Additional Customer Info (bdays)&lt;/font&gt;" style="text;html=1;align=center;verticalAlign=middle;whiteSpace=wrap;rounded=0;" vertex="1" parent="1">
          <mxGeometry x="830" y="340" width="120" height="30" as="geometry" />
        </mxCell>
        <mxCell id="wx-s2WUpj1Cs5XXkQj0O-23" style="edgeStyle=orthogonalEdgeStyle;rounded=0;orthogonalLoop=1;jettySize=auto;html=1;entryX=-0.007;entryY=-0.1;entryDx=0;entryDy=0;entryPerimeter=0;" edge="1" parent="1" source="wx-s2WUpj1Cs5XXkQj0O-22" target="wx-s2WUpj1Cs5XXkQj0O-20">
          <mxGeometry relative="1" as="geometry" />
        </mxCell>
        <mxCell id="wx-s2WUpj1Cs5XXkQj0O-24" value="&lt;div&gt;&lt;span style=&quot;background-color: transparent; color: light-dark(rgb(0, 0, 0), rgb(255, 255, 255));&quot;&gt;erp_loc_a101&lt;/span&gt;&lt;/div&gt;" style="swimlane;fontStyle=0;childLayout=stackLayout;horizontal=1;startSize=30;horizontalStack=0;resizeParent=1;resizeParentMax=0;resizeLast=0;collapsible=1;marginBottom=0;whiteSpace=wrap;html=1;fillColor=#e1d5e7;strokeColor=#9673a6;" vertex="1" parent="1">
          <mxGeometry x="820" y="510" width="140" height="60" as="geometry" />
        </mxCell>
        <mxCell id="wx-s2WUpj1Cs5XXkQj0O-25" value="cid" style="text;strokeColor=none;fillColor=none;align=left;verticalAlign=middle;spacingLeft=4;spacingRight=4;overflow=hidden;points=[[0,0.5],[1,0.5]];portConstraint=eastwest;rotatable=0;whiteSpace=wrap;html=1;" vertex="1" parent="wx-s2WUpj1Cs5XXkQj0O-24">
          <mxGeometry y="30" width="140" height="30" as="geometry" />
        </mxCell>
        <mxCell id="wx-s2WUpj1Cs5XXkQj0O-26" value="&lt;font style=&quot;font-size: 11px;&quot;&gt;Location of Customers(Country)&lt;/font&gt;" style="text;html=1;align=center;verticalAlign=middle;whiteSpace=wrap;rounded=0;" vertex="1" parent="1">
          <mxGeometry x="830" y="480" width="120" height="30" as="geometry" />
        </mxCell>
        <mxCell id="wx-s2WUpj1Cs5XXkQj0O-29" style="edgeStyle=orthogonalEdgeStyle;rounded=0;orthogonalLoop=1;jettySize=auto;html=1;entryX=0;entryY=0.5;entryDx=0;entryDy=0;" edge="1" parent="1" source="wx-s2WUpj1Cs5XXkQj0O-22" target="wx-s2WUpj1Cs5XXkQj0O-25">
          <mxGeometry relative="1" as="geometry" />
        </mxCell>
        <mxCell id="wx-s2WUpj1Cs5XXkQj0O-30" value="&lt;div&gt;&lt;span style=&quot;background-color: transparent; color: light-dark(rgb(0, 0, 0), rgb(255, 255, 255));&quot;&gt;erp_px_cat_g1v2&lt;/span&gt;&lt;/div&gt;" style="swimlane;fontStyle=0;childLayout=stackLayout;horizontal=1;startSize=30;horizontalStack=0;resizeParent=1;resizeParentMax=0;resizeLast=0;collapsible=1;marginBottom=0;whiteSpace=wrap;html=1;fillColor=#e1d5e7;strokeColor=#9673a6;" vertex="1" parent="1">
          <mxGeometry x="820" y="230" width="140" height="60" as="geometry" />
        </mxCell>
        <mxCell id="wx-s2WUpj1Cs5XXkQj0O-31" value="id" style="text;strokeColor=none;fillColor=none;align=left;verticalAlign=middle;spacingLeft=4;spacingRight=4;overflow=hidden;points=[[0,0.5],[1,0.5]];portConstraint=eastwest;rotatable=0;whiteSpace=wrap;html=1;" vertex="1" parent="wx-s2WUpj1Cs5XXkQj0O-30">
          <mxGeometry y="30" width="140" height="30" as="geometry" />
        </mxCell>
        <mxCell id="wx-s2WUpj1Cs5XXkQj0O-32" value="&lt;font style=&quot;font-size: 11px;&quot;&gt;Product category&lt;/font&gt;" style="text;html=1;align=center;verticalAlign=middle;whiteSpace=wrap;rounded=0;" vertex="1" parent="1">
          <mxGeometry x="830" y="200" width="120" height="30" as="geometry" />
        </mxCell>
        <mxCell id="wx-s2WUpj1Cs5XXkQj0O-34" value="&lt;font style=&quot;font-size: 18px;&quot;&gt;&lt;b style=&quot;&quot;&gt;Integration Model &lt;/b&gt;&lt;/font&gt;&lt;b&gt;(&lt;font style=&quot;font-size: 9px;&quot;&gt;How the tables are related&lt;/font&gt;)&lt;/b&gt;" style="text;html=1;align=center;verticalAlign=middle;whiteSpace=wrap;rounded=0;" vertex="1" parent="1">
          <mxGeometry x="440" y="50" width="320" height="70" as="geometry" />
        </mxCell>
        <mxCell id="wx-s2WUpj1Cs5XXkQj0O-35" value="" style="rounded=1;whiteSpace=wrap;html=1;fillColor=none;strokeColor=light-dark(#080808, #996500);" vertex="1" parent="1">
          <mxGeometry x="60" y="177.5" width="550" height="435" as="geometry" />
        </mxCell>
        <mxCell id="wx-s2WUpj1Cs5XXkQj0O-36" value="CRM" style="rounded=1;whiteSpace=wrap;html=1;fillColor=#dae8fc;strokeColor=#6c8ebf;" vertex="1" parent="1">
          <mxGeometry x="275" y="160" width="120" height="30" as="geometry" />
        </mxCell>
        <mxCell id="wx-s2WUpj1Cs5XXkQj0O-37" value="" style="rounded=1;whiteSpace=wrap;html=1;fillColor=none;" vertex="1" parent="1">
          <mxGeometry x="660" y="175" width="445" height="435" as="geometry" />
        </mxCell>
        <mxCell id="wx-s2WUpj1Cs5XXkQj0O-38" value="ERP" style="rounded=1;whiteSpace=wrap;html=1;fillColor=#e1d5e7;strokeColor=#9673a6;" vertex="1" parent="1">
          <mxGeometry x="830" y="160" width="120" height="30" as="geometry" />
        </mxCell>
        <mxCell id="N1teIWNPInRSzFDPB0bi-2" value="Customer" style="text;html=1;align=center;verticalAlign=middle;whiteSpace=wrap;rounded=0;fillColor=#f8cecc;strokeColor=#b85450;" vertex="1" parent="1">
          <mxGeometry x="400" y="300" width="140" height="20" as="geometry" />
        </mxCell>
        <mxCell id="N1teIWNPInRSzFDPB0bi-3" value="Customer" style="text;html=1;align=center;verticalAlign=middle;whiteSpace=wrap;rounded=0;fillColor=#f8cecc;strokeColor=#b85450;" vertex="1" parent="1">
          <mxGeometry x="820" y="290" width="140" height="20" as="geometry" />
        </mxCell>
        <mxCell id="N1teIWNPInRSzFDPB0bi-4" value="Product" style="text;html=1;align=center;verticalAlign=middle;whiteSpace=wrap;rounded=0;fillColor=#d5e8d4;strokeColor=#82b366;" vertex="1" parent="1">
          <mxGeometry x="400" y="504" width="140" height="20" as="geometry" />
        </mxCell>
        <mxCell id="N1teIWNPInRSzFDPB0bi-5" value="Product" style="text;html=1;align=center;verticalAlign=middle;whiteSpace=wrap;rounded=0;fillColor=#d5e8d4;strokeColor=#82b366;" vertex="1" parent="1">
          <mxGeometry x="820" y="430" width="140" height="20" as="geometry" />
        </mxCell>
        <mxCell id="N1teIWNPInRSzFDPB0bi-6" value="Product" style="text;html=1;align=center;verticalAlign=middle;whiteSpace=wrap;rounded=0;fillColor=#d5e8d4;strokeColor=#82b366;" vertex="1" parent="1">
          <mxGeometry x="820" y="570" width="140" height="20" as="geometry" />
        </mxCell>
        <mxCell id="N1teIWNPInRSzFDPB0bi-7" style="edgeStyle=orthogonalEdgeStyle;rounded=0;orthogonalLoop=1;jettySize=auto;html=1;" edge="1" parent="1" source="wx-s2WUpj1Cs5XXkQj0O-14">
          <mxGeometry relative="1" as="geometry">
            <mxPoint x="810" y="285" as="targetPoint" />
          </mxGeometry>
        </mxCell>
        <mxCell id="N1teIWNPInRSzFDPB0bi-8" value="Sales" style="text;html=1;align=center;verticalAlign=middle;whiteSpace=wrap;rounded=0;fillColor=#fff2cc;strokeColor=#d6b656;" vertex="1" parent="1">
          <mxGeometry x="110" y="390" width="140" height="20" as="geometry" />
        </mxCell>
        <mxCell id="P6MfzRww8UmadR8iqSZi-1" value="" style="line;strokeWidth=2;html=1;" vertex="1" parent="1">
          <mxGeometry x="10" y="120" width="1110" height="10" as="geometry" />
        </mxCell>
      </root>
    </mxGraphModel>
  </diagram>
</mxfile>
